<svg width="60" height="60" viewBox="0 0 60 60" fill="none" xmlns="http://www.w3.org/2000/svg">
<path d="M30 59.9999C24.0666 59.9999 18.2664 58.2405 13.3329 54.944C8.39944 51.6476 4.55426 46.9622 2.28363 41.4805C0.0129959 35.9987 -0.581102 29.9667 0.576459 24.1473C1.73402 18.3278 4.59125 12.9824 8.78683 8.78679C14.4129 3.1607 22.0435 -5.92805e-08 30 0C37.9565 5.92804e-08 45.5871 3.1607 51.2132 8.78679C56.8393 14.4129 60 22.0435 60 30C60 37.9565 56.8393 45.5871 51.2132 51.2132C48.4339 54.0076 45.128 56.2231 41.4867 57.7314C37.8455 59.2396 33.9413 60.0107 30 59.9999ZM30 4.00005C15.6637 4.00005 4.00009 15.6636 4.00009 30C4.00009 44.3363 15.6637 55.9999 30 55.9999C44.3364 55.9999 55.9999 44.3363 55.9999 30C55.9999 15.6636 44.3364 4.00005 30 4.00005Z" fill="#202020"/>
<path d="M30.4141 40.8284L15 25.4142L17.8282 22.5859L30.4141 35.1715L42.9999 22.5859L45.8282 25.4142L30.4141 40.8284Z" fill="#202020"/>
</svg>
