<svg width="78" height="66" viewBox="0 0 78 66" fill="none" xmlns="http://www.w3.org/2000/svg">
<path d="M27.5156 10.991C27.5156 4.92084 32.4365 0 38.5066 0C44.5767 0 49.4976 4.92084 49.4976 10.991C49.4976 17.0611 44.5767 21.982 38.5066 21.982C32.4365 21.982 27.5156 17.0611 27.5156 10.991ZM38.5066 5.50098C35.4745 5.50098 33.0166 7.95892 33.0166 10.991C33.0166 14.023 35.4745 16.481 38.5066 16.481C41.5387 16.481 43.9966 14.023 43.9966 10.991C43.9966 7.95892 41.5387 5.50098 38.5066 5.50098Z" fill="#444444"/>
<path d="M55.0098 13.7417C55.0098 9.18453 58.7042 5.49023 63.2612 5.49023C67.8182 5.49023 71.5127 9.18453 71.5127 13.7417C71.5127 18.2989 67.8182 21.9932 63.2612 21.9932C58.7042 21.9932 55.0098 18.2989 55.0098 13.7417ZM63.2612 10.9912C61.7424 10.9912 60.5107 12.2227 60.5107 13.7417C60.5107 15.2607 61.7424 16.4922 63.2612 16.4922C64.7801 16.4922 66.0117 15.2607 66.0117 13.7417C66.0117 12.2227 64.7801 10.9912 63.2612 10.9912Z" fill="#444444"/>
<path d="M13.7524 5.49023C9.19527 5.49023 5.50098 9.18453 5.50098 13.7417C5.50098 18.2989 9.19527 21.9932 13.7524 21.9932C18.3096 21.9932 22.0039 18.2989 22.0039 13.7417C22.0039 9.18453 18.3096 5.49023 13.7524 5.49023ZM11.002 13.7417C11.002 12.2227 12.2334 10.9912 13.7524 10.9912C15.2715 10.9912 16.5029 12.2227 16.5029 13.7417C16.5029 15.2607 15.2715 16.4922 13.7524 16.4922C12.2334 16.4922 11.002 15.2607 11.002 13.7417Z" fill="#444444"/>
<path d="M17.9748 27.4922C17.0387 29.1105 16.5029 30.9893 16.5029 32.9932H5.50098V46.7473C5.50098 51.3049 9.19527 54.9988 13.7524 54.9988C14.9183 54.9988 16.0277 54.7573 17.0332 54.3211C17.4408 56.1441 18.0747 57.8813 18.9037 59.5024C17.3127 60.1455 15.5739 60.4998 13.7524 60.4998C6.15719 60.4998 0 54.3425 0 46.7473V32.9932C0 29.9551 2.4629 27.4922 5.50098 27.4922H17.9748Z" fill="#444444"/>
<path d="M58.1104 59.5024C59.7012 60.1455 61.4401 60.4998 63.2615 60.4998C70.8567 60.4998 77.0139 54.3425 77.0139 46.7473V32.9932C77.0139 29.9551 74.5511 27.4922 71.5129 27.4922H59.0389C59.9752 29.1105 60.511 30.9893 60.511 32.9932L71.5129 32.9932V46.7473C71.5129 51.3049 67.8185 54.9988 63.2615 54.9988C62.0958 54.9988 60.9863 54.7573 59.9807 54.3211C59.5731 56.1441 58.9393 57.8813 58.1104 59.5024Z" fill="#444444"/>
<path d="M27.5049 27.4922C24.4668 27.4922 22.0039 29.9551 22.0039 32.9932V49.4978C22.0039 58.6124 29.3925 66.0007 38.5068 66.0007C47.6211 66.0007 55.0098 58.6124 55.0098 49.4978V32.9932C55.0098 29.9551 52.547 27.4922 49.5088 27.4922H27.5049ZM27.5049 32.9932H49.5088V49.4978C49.5088 55.5742 44.583 60.4998 38.5068 60.4998C32.4306 60.4998 27.5049 55.5742 27.5049 49.4978V32.9932Z" fill="#444444"/>
</svg>
