<svg width="32" height="32" viewBox="0 0 32 32" fill="none" xmlns="http://www.w3.org/2000/svg">
<g filter="url(#filter0_d_1142_87)">
<path d="M26.2223 0H5.77167C4.79367 0 4 0.775 4 1.72933V22.2683C4 23.224 4.79367 24 5.77167 24H26.2223C27.201 24 28 23.224 28 22.2683V1.72933C28 0.775 27.201 0 26.2223 0ZM11.118 20.4513H7.55667V8.99833H11.118V20.4513ZM9.33733 7.43233C8.19633 7.43233 7.274 6.50767 7.274 5.36767C7.274 4.22933 8.19633 3.30467 9.33733 3.30467C10.4757 3.30467 11.4003 4.22933 11.4003 5.36767C11.4003 6.50767 10.4757 7.43233 9.33733 7.43233ZM24.45 20.4513H20.8943V14.882C20.8943 13.5533 20.8683 11.845 19.044 11.845C17.1913 11.845 16.909 13.292 16.909 14.7857V20.4517H13.3507V8.99833H16.7657V10.5623H16.8143C17.2897 9.66233 18.451 8.71267 20.183 8.71267C23.785 8.71267 24.4503 11.084 24.4503 14.169L24.45 20.4513Z" fill="black"/>
</g>
<defs>
<filter id="filter0_d_1142_87" x="0" y="0" width="32" height="32" filterUnits="userSpaceOnUse" color-interpolation-filters="sRGB">
<feFlood flood-opacity="0" result="BackgroundImageFix"/>
<feColorMatrix in="SourceAlpha" type="matrix" values="0 0 0 0 0 0 0 0 0 0 0 0 0 0 0 0 0 0 127 0" result="hardAlpha"/>
<feOffset dy="4"/>
<feGaussianBlur stdDeviation="2"/>
<feComposite in2="hardAlpha" operator="out"/>
<feColorMatrix type="matrix" values="0 0 0 0 0 0 0 0 0 0 0 0 0 0 0 0 0 0 0.25 0"/>
<feBlend mode="normal" in2="BackgroundImageFix" result="effect1_dropShadow_1142_87"/>
<feBlend mode="normal" in="SourceGraphic" in2="effect1_dropShadow_1142_87" result="shape"/>
</filter>
</defs>
</svg>
